<svg xmlns="http://www.w3.org/2000/svg" id="Warstwa_1" width="350.4" height="140"><style id="style2">.st0{fill:#008fae}.st1{fill:#231f20}</style><path class="st0" d="M56.1 70.8C75.3 53.9 87.4 30 87.4 2H54.8c0 22-11.4 40.5-28.7 51-.9.5-1.8 1.2-2.7 1.7-.1.1-.3.2-.5.3-.8.4-1.6.9-2.5 1.2-.2.1-.3.2-.5.3l-2.7 1.2c-.1 0-.1.1-.2.1-1 .4-2.1.8-3.2 1.1h-.1c-1 .3-1.9.6-2.9.9-.3.1-.6.2-.9.2-.7.2-1.5.4-2.2.5-.4.1-.7.1-1.1.2-.7.1-1.5.3-2.2.4-.3.1-.7.1-1 .2-1 .1-2.1.4-3.2.5l-.1.2H0h.1v32.3c9-.5 17.8-2.6 26-5.5C43 99.2 53.8 118 53.8 140h32.6c-.1-27-11.7-52.2-30.3-69.2z" id="path6" fill="#008fae"/><g id="g24" transform="translate(-437.9 -303)"><path class="st1" d="M717.8 344.9c-.6.1-1.2.2-1.6.2-1.2 0-2.3-.3-3-1-.7-.7-1.2-1.6-1.2-2.8V303h-4v39.7c0 2 .7 3.5 1.8 4.6 1.1 1.1 2.7 1.6 4.6 1.6.8 0 1.8-.1 3-.3 1.1-.2 2.1-.5 2.9-.8l-.7-3.4c-.6.2-1.2.4-1.8.5z" id="path8" fill="#231f20"/><path class="st1" d="M787.2 326.4c-.7-2-1.6-3.8-2.9-5.4-1.3-1.6-2.8-2.9-4.6-3.8-1.8-.9-3.8-1.4-6.1-1.4-2.7 0-5.2.7-7.2 2s-3.4 3.1-5.4 5.3V303h-4v46h4v-6.7c1 2 2.8 3.7 5 4.9 2.1 1.3 4.4 1.9 7 1.9 2.1 0 4.1-.4 6-1.3 1.9-.9 3.5-2.1 4.9-3.6 1.4-1.5 2.4-3.3 3.2-5.3.8-2 1.2-4.2 1.2-6.4-.1-2.1-.4-4.1-1.1-6.1zm-4.1 10.9c-.6 1.5-1.4 2.9-2.5 4.1-1.1 1.2-2.3 2.2-3.8 2.9-1.5.7-3.1 1.1-4.9 1.1-1.1 0-2.2-.2-3.4-.6-1.2-.4-2.3-1-3.3-1.7s-2.1-1.5-2.8-2.5c-.7-1-.5-2-1.5-3.1v-10c1-1.1 1.3-2.1 2-3.1s1.7-1.8 2.6-2.6c.9-.7 2-1.3 3.1-1.8 1.1-.4 2.3-.6 3.6-.6 1.7 0 3.3.4 4.7 1.1 1.4.7 2.6 1.7 3.7 2.9 1 1.2 1.8 2.6 2.4 4.2.6 1.6.8 3.2.8 4.9.2 1.7-.1 3.3-.7 4.8z" id="path10" fill="#231f20"/><path class="st1" d="M568.5 326c2.1-.9 3.7-2.3 4.7-4.2 1.1-1.9 1.6-3.8 1.6-5.9 0-1.4-.2-2.8-.7-4.1-.5-1.3-1.1-2.5-2-3.6-.9-1-1.9-1.7-3.2-2.4-1.2-.7-2.6-.8-4.1-.8H540v44h21.7c2 0 3.9-.5 5.7-.9 1.8-.5 3.4-1.3 4.8-2.2 1.4-.9 2.4-2.1 3.2-3.6.8-1.4 1.2-3.1 1.2-5 0-3-.7-5.4-2.2-7.3-1.4-1.9-3.4-3.2-5.9-4zM550 313h10.8c1.1 0 2 .5 2.8 1.3.8.8 1.1 2 1.1 3.4 0 1.6-.4 2.6-1.3 3.3-.9.7-1.9 1-3 1H550zm15 25.7c-.9.9-2 1.3-3.3 1.3H550v-10h12.2c1.2 0 2.2.7 3 1.6.8.9 1.2 2.2 1.2 3.6-.1 1.4-.5 2.6-1.4 3.5z" id="path12" fill="#231f20"/><path class="st1" d="M600.4 316c-2 0-3.6.5-5.4 1.7-1.8 1.2-3.1 2.7-4.1 4.9V316h-10v33h10v-19.9c1-1.5 2.4-2.6 4.4-3.3 1.9-.7 4.6-1.1 6.6-1.2v-8.9s-.4.4-.6.4h-.9z" id="path14" fill="#231f20"/><path class="st1" d="M699.2 320.5c-1.5-1.5-3.3-2.8-5.4-3.7-2.1-.9-4.6-1.4-7.4-1.4-2.8 0-5.2.5-7.4 1.4-2.2.9-4 2.1-5.5 3.7s-2.6 3.4-3.4 5.5c-.8 2.1-1.2 4.3-1.2 6.6 0 2.2.4 4.3 1.2 6.3.8 2 1.9 3.8 3.4 5.3s3.3 2.7 5.5 3.6c2.2.9 4.6 1.3 7.3 1.3 3.7 0 7-.8 9.6-2.4 2.7-1.6 4.7-3.7 5.9-6.2l-8.4-2.3c-.5 1.2-1.4 2.1-2.7 2.8-1.3.7-2.7 1.1-4.2 1.1-1.8 0-3.4-.7-4.9-1.9-1.4-1.1-2.2-2.2-2.4-5.2h24c.1 0 .1-.7.2-1.3 0-.6.1-1 .1-1.6 0-2.2-.4-4.3-1.1-6.3-.6-2-1.7-3.8-3.2-5.3zm-19.9 8.5c.2-2 .9-3.5 2.2-4.7 1.3-1.2 2.9-1.8 4.8-1.8s3.5.5 4.8 1.7c1.3 1.2 2 2.8 2.2 4.8z" id="path16" fill="#231f20"/><path class="st1" d="M750 343.1v-14.5c0-4-1.1-7.1-3.4-9.4-2.3-2.3-5.4-3.4-9.5-3.4-3.9 0-7.9 1.4-12.1 4.2l1.5 2.8c1.8-1.2 3.5-2.2 5.3-2.8 1.7-.7 3.4-1 5.1-1 2.8 0 5.1.8 6.7 2.5 1.6 1.7 2.4 3.9 2.4 6.8v2.9c-1-.5-2.9-.9-4.5-1.2-1.7-.3-3.4-.4-5-.4-2 0-3.8.2-5.4.7-1.6.5-3.1 1.1-4.3 2-1.2.9-2.1 1.9-2.8 3.1-.7 1.2-1 2.5-1 3.9s.3 2.7.8 3.9c.5 1.2 1.3 2.3 2.3 3.2 1 .9 2.1 1.6 3.4 2.1 1.3.5 2.7.8 4.2.8 2.6 0 5-.5 7.3-1.5 2.2-1 4.1-2.5 5.6-4.5l.1 2.5c0 .9.4 1.7 1 2.2.6.5 1.6.8 2.7.8.4 0 .8-.1 1.8-.2v-3.7c-1.2-.1-2.2-.7-2.2-1.8zm-4-4.1c0 .4-.1.8-.3 1.2-.2.4-.5.8-.9 1.2-.9 1.4-2.3 2.5-4.2 3.3-1.8.8-3.8 1.2-6 1.2-1.1 0-2.1-.2-3-.6-.9-.4-1.8-.9-2.4-1.5-.7-.6-1.2-1.4-1.6-2.3-.4-.9-.6-1.8-.6-2.8 0-2 .9-3.6 2.8-4.9 1.9-1.2 4.3-1.9 7.2-1.9 1.6 0 3.1.1 4.6.4 1.5.3 3.4.7 4.4 1.2z" id="path18" fill="#231f20"/><path class="st1" d="M634 337.4v-8.3c0-4.5-1.3-7.8-4-10.1s-6.5-3.5-11.4-3.5c-2.6 0-5 .4-7.4 1.1-2.3.7-4.5 1.8-6.7 3.2l2.9 6.2c1.8-1.2 3.5-2.1 5.1-2.7 1.6-.6 3.2-.9 5-.9 4.3 0 6.4 1.9 6.4 5.6v1.5c-1-.5-2-.8-3.3-1-1.3-.2-2.6-.3-3.9-.3-2.1 0-3.9.3-5.6.8-1.7.5-3.1 1.3-4.4 2.2-1.2.9-2.2 2.1-2.9 3.4-.7 1.3-1 2.8-1 4.4 0 1.5.3 2.9.9 4.1.6 1.3 1.4 2.3 2.3 3.3 1 .9 2.2 1.6 3.6 2.2 1.4.5 2.9.8 4.5.8 2.2 0 4.3-.5 6.3-1.5s3.7-2.4 5.2-4.3l.2 1.5c.2 1.3.8 2.3 1.8 3.1.9.7 2.3 1.1 4.2 1.1.6 0 1.1 0 1.8-.1s1.3-.2 2.3-.4v-8.3c-1-.1-1.3-.3-1.6-.7-.2-.7-.3-1.4-.3-2.4zm-10 .3c0 .8-.4 1.6-1.3 2.3-.7.6-1.5 1.1-2.5 1.5-1 .4-2 .6-3.1.6-1.4 0-2.5-.4-3.5-1.1-.9-.8-1.4-1.7-1.4-2.9 0-1.3.6-2.4 1.8-3.2 1.2-.8 2.7-1.2 4.5-1.2.9 0 1.7.1 2.7.3 1 .2 1.7.4 2.7.8v2.9z" id="path20" fill="#231f20"/><path class="st1" id="polygon22" fill="#231f20" d="M645.9 316h-10.2l11.5 33H658l11.4-33h-9.2l-7.2 24.5z"/></g></svg>